<svg width="25" height="24" viewBox="0 0 25 24" fill="none" xmlns="http://www.w3.org/2000/svg">
<path d="M19.0925 14.8509C18.5402 14.8509 18.0925 15.2986 18.0925 15.8509V17.7259H6.09253V15.8509C6.09253 15.2986 5.64481 14.8509 5.09253 14.8509C4.54024 14.8509 4.09253 15.2986 4.09253 15.8509V17.7259C4.09253 18.7801 4.99253 19.6426 6.09253 19.6426H18.0925C19.1925 19.6426 20.0925 18.7801 20.0925 17.7259V15.8509C20.0925 15.2986 19.6448 14.8509 19.0925 14.8509Z" fill="#8C2A8D"/>
<path d="M16.3569 11.7226C16.758 11.3382 16.758 10.697 16.3569 10.3126C15.9797 9.95112 15.3848 9.95055 15.0069 10.3113L13.0925 12.1388V5.30926C13.0925 4.75698 12.6448 4.30927 12.0925 4.30927C11.5402 4.30927 11.0925 4.75698 11.0925 5.30927V12.1388L9.17811 10.3113C8.80023 9.95055 8.20537 9.95112 7.8282 10.3126C7.42706 10.697 7.42706 11.3382 7.8282 11.7226L12.0925 15.8093L16.3569 11.7226Z" fill="#8C2A8D"/>
</svg>
