<svg width="24" height="24" viewBox="0 0 24 24" fill="none" xmlns="http://www.w3.org/2000/svg">
<rect width="22.3716" height="23.2088" transform="translate(0.830078 0.604401)" fill=""/>
<path d="M18.5409 15.1099C18.0261 15.1099 17.6088 15.5272 17.6088 16.042V18.011H6.42298V16.042C6.42298 15.5272 6.00565 15.1099 5.49083 15.1099C4.97602 15.1099 4.55869 15.5272 4.55869 16.042V18.011C4.55869 19.0747 5.39762 19.9451 6.42298 19.9451H17.6088C18.6341 19.9451 19.4731 19.0747 19.4731 18.011V16.042C19.4731 15.5272 19.0557 15.1099 18.5409 15.1099Z" fill="#8C2A8D"/>
<path d="M16.043 11.8991C16.3966 11.5322 16.3966 10.9513 16.043 10.5844C15.6709 10.1984 15.053 10.1978 14.6803 10.5831L12.948 12.3732V5.40468C12.948 4.88987 12.5307 4.47253 12.0159 4.47253C11.5011 4.47253 11.0837 4.88987 11.0837 5.40468V12.3732L9.35149 10.5831C8.97872 10.1978 8.36083 10.1984 7.9888 10.5844C7.63513 10.9513 7.63513 11.5322 7.9888 11.8991L12.0159 16.0769L16.043 11.8991Z" fill="#8C2A8D"/>
</svg>
